# xmcd CD database file
#
# Track frame offsets:
#	150
#	25207
#	51661
#	71927
#	90614
#	96532
#	110519
#	118032
#	134559
#	163687
#	196592
#	216314
#	236949
#	259652
#	302444
#
# Disc length: 4339 seconds
#
# Revision: 0
# Processed by: cddbd v1.5PL3 Copyright (c) Steve Scherf et al.
# Submitted via: CDex 1.51
#
DISCID=e410f10f
DTITLE=Various Artist - The Red Hot Burning Hell Vol.2
DYEAR=2001
DGENRE=Heavy Metal
TTITLE0=FAIRY MIRROR/GLORIOUS DAY
TTITLE1=FAIRY MIRROR/SKY
TTITLE2=陰陽座/百々目鬼
TTITLE3=陰陽座/侵食輪廻
TTITLE4=NEAT 001/HERO
TTITLE5=NEAT 001/OUT OF SIGHT
TTITLE6=NEAT 001/LIVING
TTITLE7=THUNDERSTEEL/DYNASTY
TTITLE8=THUNDERSTEEL/RIDE THE STORM
TTITLE9=STEEL EMBLEM/HELL'S GATE
TTITLE10=STEEL EMBLEM/STEEL EMBLEM
TTITLE11=AURGUMENT SOUL/THE SCUM OF SOCIETY
TTITLE12=AURGUMENT SOUL/BE NOT CRUSHED
TTITLE13=KAIZER/BURNING BLOOD
TTITLE14=KAIZER/ELEGY
EXTD=YEAR: 2001
EXTT0=
EXTT1=
EXTT2=
EXTT3=
EXTT4=
EXTT5=
EXTT6=
EXTT7=
EXTT8=
EXTT9=
EXTT10=
EXTT11=
EXTT12=
EXTT13=
EXTT14=
PLAYORDER=
